<?xml version="1.0" encoding="UTF-8"?>
<!DOCTYPE svg PUBLIC "-//W3C//DTD SVG 1.1//EN" "http://www.w3.org/Graphics/SVG/1.1/DTD/svg11.dtd">
<!-- Creator: CorelDRAW 2020 (64-Bit) -->
<svg xmlns="http://www.w3.org/2000/svg" xml:space="preserve" width="82px" height="20px" version="1.1" shapeRendering="geometricPrecision" textRendering="geometricPrecision" imageRendering="optimizeQuality" fillRule="evenodd" clipRule="evenodd"
viewBox="0 0 12.16 2.91"
 xmlns:xlink="http://www.w3.org/1999/xlink"
 xmlns:xodm="http://www.corel.com/coreldraw/odm/2003">
 <defs>
   <linearGradient id="id0" gradientUnits="userSpaceOnUse" x1="6.85" y1="2.45" x2="11.62" y2="2.45">
    <stop offset="0" stop-opacity="1" stop-color="#3493FD"/>
    <stop offset="0.509804" stop-opacity="1" stop-color="#C652C2"/>
    <stop offset="1" stop-opacity="1" stop-color="#FF7A56"/>
   </linearGradient>
 </defs>
 <g id="Layer_x0020_1">
  <metadata id="CorelCorpID_0Corel-Layer"/>
  <path fill="#22242C" fillRule="nonzero" d="M0.63 2.2c-0.11,0 -0.22,-0.03 -0.31,-0.09 -0.1,-0.07 -0.17,-0.16 -0.23,-0.27 -0.06,-0.12 -0.09,-0.26 -0.09,-0.43 0,-0.17 0.03,-0.31 0.09,-0.43 0.06,-0.12 0.14,-0.21 0.23,-0.27 0.1,-0.07 0.21,-0.1 0.33,-0.1 0.08,0 0.16,0.02 0.24,0.06 0.07,0.03 0.14,0.09 0.19,0.15l0 -0.17 0.35 0 0 1.5 -0.35 0 0 -0.25c-0.04,0.08 -0.1,0.15 -0.18,0.21 -0.08,0.06 -0.17,0.09 -0.27,0.09zm0.09 -0.38c0.06,0 0.12,-0.02 0.18,-0.05 0.05,-0.04 0.1,-0.09 0.13,-0.16 0.04,-0.06 0.05,-0.14 0.05,-0.23l0 -0.21c-0.05,-0.06 -0.1,-0.11 -0.16,-0.14 -0.06,-0.03 -0.12,-0.05 -0.19,-0.05 -0.08,0 -0.14,0.02 -0.19,0.06 -0.06,0.04 -0.1,0.09 -0.13,0.16 -0.03,0.07 -0.04,0.14 -0.04,0.21 0,0.08 0.01,0.14 0.04,0.21 0.03,0.06 0.07,0.11 0.13,0.14 0.05,0.04 0.11,0.06 0.18,0.06z"/>
  <path fill="#22242C" fillRule="nonzero" d="M2.44 2.15l0 -0.87c0,-0.1 -0.03,-0.18 -0.07,-0.23 -0.05,-0.05 -0.11,-0.07 -0.19,-0.07 -0.06,0 -0.12,0.02 -0.18,0.07 -0.05,0.04 -0.1,0.09 -0.14,0.15l0 -0.34c0.03,-0.04 0.07,-0.08 0.11,-0.12 0.04,-0.04 0.09,-0.07 0.14,-0.09 0.06,-0.03 0.12,-0.04 0.18,-0.04 0.09,0 0.18,0.02 0.26,0.07 0.07,0.04 0.13,0.11 0.18,0.21 0.04,0.09 0.06,0.2 0.06,0.34l0 0.92 -0.35 0zm-0.93 0l0 -1.5 0.35 0 0 1.5 -0.35 0z"/>
  <path fill="#22242C" fillRule="nonzero" d="M3.52 2.91c-0.08,0 -0.15,-0.01 -0.21,-0.03 -0.07,-0.01 -0.12,-0.04 -0.17,-0.07 -0.05,-0.03 -0.1,-0.06 -0.15,-0.09l0 -0.36c0.05,0.03 0.09,0.06 0.14,0.09 0.05,0.03 0.1,0.06 0.16,0.08 0.06,0.02 0.13,0.03 0.21,0.03 0.09,0 0.16,-0.02 0.23,-0.05 0.06,-0.03 0.11,-0.08 0.15,-0.14 0.04,-0.06 0.06,-0.13 0.06,-0.21l0 -0.26c-0.04,0.08 -0.1,0.15 -0.18,0.21 -0.08,0.06 -0.17,0.09 -0.27,0.09 -0.11,0 -0.22,-0.03 -0.31,-0.09 -0.1,-0.07 -0.17,-0.16 -0.23,-0.27 -0.06,-0.12 -0.09,-0.26 -0.09,-0.43 0,-0.17 0.03,-0.31 0.09,-0.43 0.06,-0.12 0.13,-0.21 0.23,-0.27 0.1,-0.07 0.21,-0.1 0.33,-0.1 0.08,0 0.16,0.02 0.24,0.06 0.07,0.03 0.14,0.09 0.19,0.15l0 -0.17 0.35 0 0 1.46c0,0.17 -0.03,0.32 -0.1,0.44 -0.07,0.12 -0.17,0.21 -0.28,0.27 -0.12,0.06 -0.25,0.09 -0.39,0.09zm0.06 -1.09c0.06,0 0.12,-0.02 0.17,-0.06 0.06,-0.03 0.1,-0.08 0.14,-0.15 0.03,-0.06 0.05,-0.14 0.05,-0.23l0 -0.21c-0.05,-0.06 -0.1,-0.11 -0.16,-0.14 -0.06,-0.03 -0.12,-0.05 -0.19,-0.05 -0.08,0 -0.14,0.02 -0.19,0.06 -0.06,0.04 -0.1,0.09 -0.13,0.16 -0.03,0.07 -0.04,0.14 -0.04,0.21 0,0.08 0.01,0.14 0.04,0.2 0.03,0.07 0.07,0.11 0.13,0.15 0.05,0.04 0.11,0.06 0.18,0.06z"/>
  <path fill="#22242C" fillRule="nonzero" d="M5.01 2.91c-0.08,0 -0.15,-0.01 -0.22,-0.03 -0.06,-0.01 -0.12,-0.04 -0.17,-0.07 -0.05,-0.03 -0.09,-0.06 -0.14,-0.09l0 -0.36c0.04,0.03 0.09,0.06 0.13,0.09 0.05,0.03 0.11,0.06 0.17,0.08 0.06,0.02 0.13,0.03 0.21,0.03 0.08,0 0.16,-0.02 0.22,-0.05 0.07,-0.03 0.12,-0.08 0.16,-0.14 0.04,-0.06 0.06,-0.13 0.06,-0.21l0 -0.26c-0.04,0.08 -0.1,0.15 -0.18,0.21 -0.08,0.06 -0.17,0.09 -0.27,0.09 -0.12,0 -0.22,-0.03 -0.31,-0.09 -0.1,-0.07 -0.18,-0.16 -0.24,-0.27 -0.05,-0.12 -0.08,-0.26 -0.08,-0.43 0,-0.17 0.03,-0.31 0.08,-0.43 0.06,-0.12 0.14,-0.21 0.24,-0.27 0.1,-0.07 0.21,-0.1 0.33,-0.1 0.08,0 0.16,0.02 0.23,0.06 0.08,0.03 0.14,0.09 0.2,0.15l0 -0.17 0.35 0 0 1.46c0,0.17 -0.04,0.32 -0.11,0.44 -0.07,0.12 -0.16,0.21 -0.28,0.27 -0.11,0.06 -0.24,0.09 -0.38,0.09zm0.05 -1.09c0.07,0 0.13,-0.02 0.18,-0.06 0.06,-0.03 0.1,-0.08 0.14,-0.15 0.03,-0.06 0.05,-0.14 0.05,-0.23l0 -0.21c-0.05,-0.06 -0.11,-0.11 -0.17,-0.14 -0.05,-0.03 -0.12,-0.05 -0.19,-0.05 -0.07,0 -0.13,0.02 -0.19,0.06 -0.05,0.04 -0.09,0.09 -0.12,0.16 -0.03,0.07 -0.05,0.14 -0.05,0.21 0,0.08 0.02,0.14 0.05,0.2 0.03,0.07 0.07,0.11 0.12,0.15 0.06,0.04 0.12,0.06 0.18,0.06z"/>
  <path fill="#22242C" fillRule="nonzero" d="M6.44 2.2c-0.11,0 -0.21,-0.03 -0.31,-0.09 -0.09,-0.07 -0.17,-0.16 -0.23,-0.27 -0.06,-0.12 -0.09,-0.26 -0.09,-0.43 0,-0.17 0.03,-0.31 0.09,-0.43 0.06,-0.12 0.14,-0.21 0.24,-0.27 0.1,-0.07 0.21,-0.1 0.33,-0.1 0.08,0 0.15,0.02 0.23,0.06 0.08,0.03 0.14,0.09 0.19,0.15l0 -0.17 0.36 0 0 1.5 -0.36 0 0 -0.25c-0.04,0.08 -0.1,0.15 -0.17,0.21 -0.08,0.06 -0.17,0.09 -0.28,0.09zm0.09 -0.38c0.06,0 0.12,-0.02 0.18,-0.05 0.05,-0.04 0.1,-0.09 0.13,-0.16 0.04,-0.06 0.06,-0.14 0.05,-0.23l0 -0.21c-0.05,-0.06 -0.1,-0.11 -0.16,-0.14 -0.06,-0.03 -0.12,-0.05 -0.19,-0.05 -0.07,0 -0.14,0.02 -0.19,0.06 -0.05,0.04 -0.1,0.09 -0.13,0.16 -0.02,0.07 -0.04,0.14 -0.04,0.21 0,0.08 0.02,0.14 0.04,0.21 0.03,0.06 0.08,0.11 0.13,0.14 0.05,0.04 0.11,0.06 0.18,0.06z"/>
  <path fill="#22242C" fillRule="nonzero" d="M8.29 2.15l0 -0.87c0,-0.1 -0.02,-0.18 -0.07,-0.23 -0.04,-0.05 -0.11,-0.07 -0.19,-0.07 -0.06,0 -0.12,0.02 -0.17,0.07 -0.06,0.04 -0.1,0.09 -0.14,0.15l0 -0.34c0.03,-0.04 0.06,-0.08 0.1,-0.12 0.04,-0.04 0.09,-0.07 0.15,-0.09 0.05,-0.03 0.11,-0.04 0.17,-0.04 0.1,0 0.18,0.02 0.26,0.07 0.08,0.04 0.14,0.11 0.18,0.21 0.04,0.09 0.07,0.2 0.07,0.34l0 0.92 -0.36 0 0 0zm-0.93 0l0 -1.5 0.36 0 0 1.5 -0.36 0z"/>
  <path fill="#22242C" fillRule="nonzero" d="M9.48 2.19c-0.12,0 -0.23,-0.03 -0.33,-0.08 -0.09,-0.05 -0.17,-0.12 -0.22,-0.22 -0.06,-0.1 -0.09,-0.21 -0.09,-0.34l0 -0.9 0.36 0 0 0.83c0,0.11 0.03,0.2 0.08,0.26 0.05,0.06 0.12,0.09 0.2,0.09 0.08,0 0.15,-0.03 0.2,-0.09 0.05,-0.06 0.08,-0.15 0.08,-0.26l0 -0.83 0.35 0 0 0.9c0,0.13 -0.02,0.24 -0.08,0.34 -0.06,0.1 -0.13,0.17 -0.23,0.22 -0.09,0.05 -0.2,0.08 -0.32,0.08z"/>
  <path fill="#22242C" fillRule="nonzero" d="M11.39 2.19l0 -1.64c0,-0.12 0.02,-0.22 0.07,-0.3 0.04,-0.08 0.1,-0.14 0.18,-0.18 0.07,-0.05 0.16,-0.07 0.24,-0.07 0.06,0 0.11,0.01 0.16,0.02 0.05,0.01 0.08,0.03 0.12,0.06l0 0.31c-0.03,-0.01 -0.06,-0.03 -0.1,-0.04 -0.04,-0.01 -0.08,-0.02 -0.12,-0.01 -0.05,0 -0.1,0.02 -0.14,0.05 -0.04,0.04 -0.06,0.1 -0.06,0.18l0 1.62 -0.35 0zm-0.21 -1.19l0 -0.31 0.93 0 0 0.31 -0.93 0z"/>
  <path fill="#22242C" d="M10.59 2.19l-0.39 0 0 -1.34c0,0 0.03,-0.24 0.24,-0.25l0.62 0 0 0.35 -0.47 0 0 1.24 0 0z"/>
  <polygon fill="url(#id0)" points="6.79,2.52 11.73,2.52 11.73,2.35 6.79,2.35 "/>
 </g>
</svg>
