<svg width="126" height="50" viewBox="0 0 126 50" fill="none" xmlns="http://www.w3.org/2000/svg">
<path fill-rule="evenodd" clip-rule="evenodd" d="M12.8109 1.20294C13.7071 -0.929389 17.2664 0.010949 16.3596 2.16837C12.5297 11.2819 8.67631 20.4347 6.06588 29.9774C4.99553 33.8912 2.60896 39.9302 3.78896 43.978C5.07976 48.4067 15.9423 45.2812 19.1385 44.4574C21.4359 43.8653 22.4065 47.3697 20.1171 47.9599C15.559 49.1347 7.33695 51.4442 2.91894 48.7359C-0.522044 46.6264 -0.20864 42.2655 0.339626 38.8438C2.12439 27.7117 6.18995 17.1021 10.5107 6.69525L11.2754 4.86079C11.7865 3.63914 12.2994 2.42003 12.8109 1.20294ZM70.5894 21.2041C72.8234 20.5765 75.4289 21.0925 75.1796 23.8158C74.9156 26.7001 72.0122 30.1326 69.7357 31.7665C68.2544 32.8297 66.5804 33.4712 64.9026 33.7112C64.4818 35.7795 64.9732 37.5636 67.5855 37.8527C70.6072 38.1871 72.9589 35.2691 74.6985 33.272C76.2458 31.4962 78.838 34.0767 77.301 35.8406C75.0104 38.4695 72.2577 41.2261 68.5299 41.4665C65.6129 41.6541 62.7239 40.3344 61.5974 37.5636C61.1042 36.3491 60.974 34.9774 61.1266 33.5566C59.2613 33.1158 57.596 32.1197 56.4396 30.591C54.9196 33.3083 53.3996 36.026 51.8797 38.7436C50.4587 41.2838 49.3167 45.2739 46.2589 46.1772C45.6344 46.3614 44.9237 46.1607 44.4684 45.7098C42.5823 43.8415 43.0751 40.7561 42.9401 38.2939C42.8266 36.2233 42.7128 34.1528 42.5993 32.0826C41.5203 33.2046 40.2845 34.2569 39.0259 34.9856C40.2166 40.3973 34.2771 48.2466 27.6964 46.964C23.3011 46.1068 20.4911 42.1604 21.4181 37.801C22.496 32.7301 26.5289 28.5029 30.8995 25.9283C32.94 24.7262 34.7882 27.8677 32.7567 29.0646C29.4436 31.0161 22.7999 36.9697 25.3595 41.4137C28.983 47.7051 36.2816 39.9326 35.3508 35.9458C34.1192 35.7721 33.0178 34.9587 32.2153 33.1911C31.5805 31.7939 32.6201 30.0933 34.293 30.5229C35.5629 30.849 36.5544 31.3715 37.3056 32.0317C39.213 31.1322 41.6808 27.4693 42.3838 26.3001C42.4669 26.0002 42.6202 25.7541 42.83 25.5718C43.3965 24.8969 44.2821 24.9254 44.9647 25.3523C45.5186 25.6145 45.9531 26.1249 45.9948 26.8948C46.1424 29.5769 46.2892 32.259 46.4361 34.9411C46.5101 36.2821 46.5837 37.6231 46.6569 38.9646C46.6633 39.0825 46.6648 39.2683 46.6654 39.4977L46.666 39.7923C46.6666 40.1047 46.6683 40.466 46.6781 40.8344C47.0887 40.0161 47.4457 39.1563 47.6574 38.7769C48.4698 37.3251 49.2817 35.8732 50.0941 34.4213C51.6714 31.601 53.2486 28.7811 54.8263 25.9609C54.8399 25.2632 55.2159 24.8041 55.7308 24.582C57.0201 23.4746 59.3118 24.9542 58.5894 26.699C58.9513 28.8306 60.3138 29.8701 61.9962 30.1285C63.6031 26.0148 67.0649 22.1939 70.5894 21.2041ZM71.3008 24.2508L71.2604 24.368C70.872 25.279 68.8116 26.5412 68.3227 27.0903C67.9053 27.5592 67.3643 28.2992 66.8301 29.1762C67.5665 28.7909 68.2339 28.316 68.7636 27.779C69.129 27.4094 71.0925 25.2546 71.3027 24.2461L71.3008 24.2508Z" fill="black"/>
<path fill-rule="evenodd" clip-rule="evenodd" d="M104.715 13.7681C107.396 13.252 110.075 13.9929 112.253 15.8524C115.341 18.4889 115.543 23.0005 112.793 27.9208C110.799 31.4889 108.325 34.8939 105.933 38.1869C104.922 39.5795 103.876 41.0193 102.893 42.4368C102.542 42.9435 101.874 43.1373 101.21 43.1373C100.787 43.1373 100.366 43.059 100.029 42.9331C99.7027 42.8689 99.4445 42.7445 99.2601 42.5642L98.7253 42.0404C94.8978 38.2931 90.9397 34.4198 87.5132 30.2688C84.022 26.0402 82.9139 21.7819 84.3929 18.2817C85.8203 14.9032 89.5871 13.0293 93.1511 13.9225C95.3357 14.4696 97.0234 15.8166 98.279 18.0227C99.8365 15.8114 102.158 14.2577 104.715 13.7681ZM91.5652 16.3052C90.9086 16.3052 90.2073 16.6093 89.4386 17.2243C86.9563 19.2101 87.1729 22.8673 88.4885 25.6107C89.6504 28.0333 91.602 30.0901 93.4899 32.0791C93.8145 32.4215 94.1391 32.7629 94.4573 33.1049C96.5676 35.3664 98.4876 37.4336 100.348 39.5277L105.759 31.8651C106.061 31.4387 106.374 31.0076 106.692 30.5714C108.505 28.0778 110.38 25.4987 110.82 22.6166L110.853 22.3606C111.057 20.485 110.383 18.5693 109.095 17.4196C108.342 16.7466 107.038 16.043 105.112 16.516C102.067 17.2647 100.432 20.4929 100.162 23.3606C100.096 24.0559 99.4745 24.5289 98.5387 24.5957C97.6688 24.6594 96.6366 24.3455 96.4311 23.5129C95.7261 20.6473 94.2023 17.0683 92.2259 16.4124C92.0104 16.3409 91.7907 16.3052 91.5652 16.3052ZM122.225 9.36758C122.8 7.02424 126.515 7.84127 125.94 10.1841C125.322 12.7041 123.627 14.5542 121.261 15.622C120.321 16.0468 119.152 15.2811 118.868 14.4086C118.528 13.3626 119.17 12.4767 120.103 12.0554C121.2 11.5602 121.95 10.4908 122.225 9.36758ZM110.48 3.57223C110.815 2.6122 111.656 1.91277 112.753 2.15421C113.677 2.3573 114.53 3.43183 114.195 4.38875L112.763 8.48842C112.427 9.44845 111.586 10.1479 110.49 9.90645C109.566 9.70335 108.713 8.62883 109.048 7.67139C109.525 6.30518 110.002 4.93896 110.48 3.57223ZM99.077 1.46685C99.4227 0.509932 100.245 -0.194676 101.35 0.0483104C102.266 0.249849 103.137 1.32904 102.792 2.28337C102.459 3.20454 102.468 3.72263 102.79 4.54537C103.16 5.49296 102.492 6.60324 101.555 6.89751C100.536 7.21769 99.5307 6.62655 99.1624 5.68362C98.6439 4.3573 98.5907 2.80975 99.077 1.46685Z" fill="black"/>
</svg>
