<svg width="36" height="12" viewBox="0 0 36 12" fill="none" xmlns="http://www.w3.org/2000/svg">
<path d="M18.3438 12H17.6875C17.4531 10.6562 16.5 8.96875 14.6875 7.60938C13.7969 6.9375 12.8906 6.5 12 6.3125V5.65625C13.7656 5.23437 15.5 4.04688 16.6094 2.4375C17.1719 1.625 17.5313 0.828125 17.6875 0H18.3438C18.6094 1.57813 19.8281 3.32812 21.4844 4.5C22.2969 5.07812 23.1406 5.46875 24 5.65625V6.3125C22.2656 6.67187 20.25 8.21875 19.25 9.79688C18.75 10.5938 18.4531 11.3281 18.3438 12Z" fill="black"/>
<path d="M2.11458 8H1.89583C1.81771 7.55208 1.5 6.98958 0.895832 6.53646C0.598958 6.3125 0.296875 6.16667 0 6.10417V5.88542C0.588541 5.74479 1.16667 5.34896 1.53646 4.8125C1.72396 4.54167 1.84375 4.27604 1.89583 4H2.11458C2.20312 4.52604 2.60937 5.10938 3.16146 5.5C3.43229 5.69271 3.71354 5.82292 4 5.88542V6.10417C3.42188 6.22396 2.75 6.73958 2.41667 7.26562C2.25 7.53125 2.15104 7.77604 2.11458 8Z" fill="black"/>
<path d="M34.1146 8H33.8958C33.8177 7.55208 33.5 6.98958 32.8958 6.53646C32.599 6.3125 32.2969 6.16667 32 6.10417V5.88542C32.5885 5.74479 33.1667 5.34896 33.5365 4.8125C33.724 4.54167 33.8438 4.27604 33.8958 4H34.1146C34.2031 4.52604 34.6094 5.10938 35.1615 5.5C35.4323 5.69271 35.7135 5.82292 36 5.88542V6.10417C35.4219 6.22396 34.75 6.73958 34.4167 7.26562C34.25 7.53125 34.151 7.77604 34.1146 8Z" fill="black"/>
</svg>
